<svg xmlns="http://www.w3.org/2000/svg" viewBox="0 0 260 300" role="img" aria-label="Lawson League">
  <title>Lawson League</title>
  <defs>
    <linearGradient id="lffField" x1="0" y1="0" x2="0" y2="1">
      <stop offset="0" stop-color="#123056"/>
      <stop offset="1" stop-color="#050c18"/>
    </linearGradient>
  </defs>
  <path d="M22,22 H238 V150 C238,222 176,272 130,294 C84,272 22,222 22,150 Z" fill="url(#lffField)" stroke="#C8A04B" stroke-width="10"/>
  <path d="M46.400 132.800L66.080 132.800L66.080 200L46.400 200L46.400 132.800M65.792 195.104L91.040 195.104L94.880 200L65.792 200L65.792 195.104M97.856 177.728L98.816 177.728L95.168 200L74.432 200L77.888 195.104Q82.496 195.104 86.480 193.040Q90.464 190.976 93.440 187.088Q96.416 183.200 97.856 177.728M46.400 192.992L46.688 192.992L46.688 200L39.008 200L39.008 199.040Q39.008 199.040 39.632 199.040Q40.256 199.040 40.256 199.040Q42.752 199.040 44.528 197.264Q46.304 195.488 46.400 192.992M46.688 132.800L46.688 139.808L46.400 139.808Q46.304 137.312 44.528 135.536Q42.752 133.760 40.256 133.760Q40.256 133.760 39.632 133.760Q39.008 133.760 39.008 133.760L39.008 132.800L46.688 132.800M66.080 139.808L65.792 139.808L65.792 132.800L73.472 132.800L73.472 133.760Q73.376 133.760 72.800 133.760Q72.224 133.760 72.224 133.760Q69.728 133.760 67.952 135.536Q66.176 137.312 66.080 139.808 M110.992 132.800L130.672 132.800L130.672 200L110.992 200L110.992 132.800M130.384 164.480L152.464 164.480L152.464 169.280L130.384 169.280L130.384 164.480M130.384 132.800L157.552 132.800L157.552 137.696L130.384 137.696L130.384 132.800M141.136 169.088L152.464 169.088L152.464 180.224L151.504 180.224L151.504 179.744Q151.504 175.232 148.576 172.304Q145.648 169.376 141.136 169.280L141.136 169.088M151.504 153.536L152.464 153.536L152.464 164.672L141.136 164.672L141.136 164.480Q145.648 164.384 148.624 161.408Q151.600 158.432 151.504 153.920L151.504 153.536M144.208 137.408L157.552 137.408L157.552 150.848L156.592 150.848L156.592 150.080Q156.592 144.320 153.328 141.008Q150.064 137.696 144.208 137.600L144.208 137.408M157.552 131.072L157.552 133.856L145.840 132.800Q147.952 132.800 150.304 132.512Q152.656 132.224 154.672 131.840Q156.688 131.456 157.552 131.072M110.992 192.992L111.280 192.992L111.280 200L103.600 200L103.600 199.040Q103.600 199.040 104.224 199.040Q104.848 199.040 104.848 199.040Q107.344 199.040 109.120 197.264Q110.896 195.488 110.992 192.992M111.280 132.800L111.280 139.808L110.992 139.808Q110.896 137.312 109.120 135.536Q107.344 133.760 104.848 133.760Q104.848 133.760 104.224 133.760Q103.600 133.760 103.600 133.760L103.600 132.800L111.280 132.800M130.384 200L130.384 192.992L130.672 192.992Q130.768 195.488 132.544 197.264Q134.320 199.040 136.816 199.040Q136.816 199.040 137.392 199.040Q137.968 199.040 138.064 199.040L138.064 200 M173.568 132.800L193.248 132.800L193.248 200L173.568 200L173.568 132.800M192.960 164.480L215.040 164.480L215.040 169.280L192.960 169.280L192.960 164.480M192.960 132.800L220.128 132.800L220.128 137.696L192.960 137.696L192.960 132.800M203.712 169.088L215.040 169.088L215.040 180.224L214.080 180.224L214.080 179.744Q214.080 175.232 211.152 172.304Q208.224 169.376 203.712 169.280L203.712 169.088M214.080 153.536L215.040 153.536L215.040 164.672L203.712 164.672L203.712 164.480Q208.224 164.384 211.200 161.408Q214.176 158.432 214.080 153.920L214.080 153.536M206.784 137.408L220.128 137.408L220.128 150.848L219.168 150.848L219.168 150.080Q219.168 144.320 215.904 141.008Q212.640 137.696 206.784 137.600L206.784 137.408M220.128 131.072L220.128 133.856L208.416 132.800Q210.528 132.800 212.880 132.512Q215.232 132.224 217.248 131.840Q219.264 131.456 220.128 131.072M173.568 192.992L173.856 192.992L173.856 200L166.176 200L166.176 199.040Q166.176 199.040 166.800 199.040Q167.424 199.040 167.424 199.040Q169.920 199.040 171.696 197.264Q173.472 195.488 173.568 192.992M173.856 132.800L173.856 139.808L173.568 139.808Q173.472 137.312 171.696 135.536Q169.920 133.760 167.424 133.760Q167.424 133.760 166.800 133.760Q166.176 133.760 166.176 133.760L166.176 132.800L173.856 132.800M192.960 200L192.960 192.992L193.248 192.992Q193.344 195.488 195.120 197.264Q196.896 199.040 199.392 199.040Q199.392 199.040 199.968 199.040Q200.544 199.040 200.640 199.040L200.640 200" fill="#F4EEE1"/>
</svg>
