<svg xmlns="http://www.w3.org/2000/svg" viewBox="0 0 538.9 173.1" role="img" aria-label="Lawson Family &amp; Friends Fantasy League">
  <title>Lawson Family &amp; Friends Fantasy League — primary horizontal lockup</title>
  <defs>
    <linearGradient id="lffField" x1="0" y1="0" x2="0" y2="1">
      <stop offset="0" stop-color="#123056"/>
      <stop offset="1" stop-color="#050c18"/>
    </linearGradient>
  </defs>
  <g transform="translate(0,0.0) scale(0.5769)">
  <path d="M22,22 H238 V150 C238,222 176,272 130,294 C84,272 22,222 22,150 Z" fill="url(#lffField)" stroke="#C8A04B" stroke-width="6"/>
  <path d="M32,32 H228 V150 C228,214 172,260 130,281 C88,260 32,214 32,150 Z" fill="none" stroke="#C8A04B" stroke-width="1.5" opacity="0.5"/>
  <g transform="translate(130,74)">
    <path d="M-50,0 Q-28,-23 0,-23 Q28,-23 50,0 Q28,23 0,23 Q-28,23 -50,0 Z" fill="#C8A04B"/>
    <path d="M-40,0 Q-24,-13 0,-13 Q24,-13 40,0 Q24,13 0,13 Q-24,13 -40,0 Z" fill="none" stroke="#0d2244" stroke-width="1.4" opacity="0.35"/>
    <line x1="-33" y1="-10" x2="-33" y2="10" stroke="#0d2244" stroke-width="3.2" stroke-linecap="round"/>
    <line x1="33" y1="-10" x2="33" y2="10" stroke="#0d2244" stroke-width="3.2" stroke-linecap="round"/>
    <line x1="-16" y1="0" x2="16" y2="0" stroke="#0d2244" stroke-width="2.6" stroke-linecap="round"/>
    <line x1="-14" y1="-5" x2="-14" y2="5" stroke="#0d2244" stroke-width="2.4" stroke-linecap="round"/>
    <line x1="-7" y1="-5.5" x2="-7" y2="5.5" stroke="#0d2244" stroke-width="2.4" stroke-linecap="round"/>
    <line x1="0" y1="-6" x2="0" y2="6" stroke="#0d2244" stroke-width="2.4" stroke-linecap="round"/>
    <line x1="7" y1="-5.5" x2="7" y2="5.5" stroke="#0d2244" stroke-width="2.4" stroke-linecap="round"/>
    <line x1="14" y1="-5" x2="14" y2="5" stroke="#0d2244" stroke-width="2.4" stroke-linecap="round"/>
  </g>
  <path d="M68.500 101L82.850 101L82.850 150L68.500 150L68.500 101M82.640 146.430L101.050 146.430L103.850 150L82.640 150L82.640 146.430M106.020 133.760L106.720 133.760L104.060 150L88.940 150L91.460 146.430Q94.820 146.430 97.725 144.925Q100.630 143.420 102.800 140.585Q104.970 137.750 106.020 133.760M68.500 144.890L68.710 144.890L68.710 150L63.110 150L63.110 149.300Q63.110 149.300 63.565 149.300Q64.020 149.300 64.020 149.300Q65.840 149.300 67.135 148.005Q68.430 146.710 68.500 144.890M68.710 101L68.710 106.110L68.500 106.110Q68.430 104.290 67.135 102.995Q65.840 101.700 64.020 101.700Q64.020 101.700 63.565 101.700Q63.110 101.700 63.110 101.700L63.110 101L68.710 101M82.850 106.110L82.640 106.110L82.640 101L88.240 101L88.240 101.700Q88.170 101.700 87.750 101.700Q87.330 101.700 87.330 101.700Q85.510 101.700 84.215 102.995Q82.920 104.290 82.850 106.110 M116.140 101L130.490 101L130.490 150L116.140 150L116.140 101M130.280 124.100L146.380 124.100L146.380 127.600L130.280 127.600L130.280 124.100M130.280 101L150.090 101L150.090 104.570L130.280 104.570L130.280 101M138.120 127.460L146.380 127.460L146.380 135.580L145.680 135.580L145.680 135.230Q145.680 131.940 143.545 129.805Q141.410 127.670 138.120 127.600L138.120 127.460M145.680 116.120L146.380 116.120L146.380 124.240L138.120 124.240L138.120 124.100Q141.410 124.030 143.580 121.860Q145.750 119.690 145.680 116.400L145.680 116.120M140.360 104.360L150.090 104.360L150.090 114.160L149.390 114.160L149.390 113.600Q149.390 109.400 147.010 106.985Q144.630 104.570 140.360 104.500L140.360 104.360M150.090 99.740L150.090 101.770L141.550 101Q143.090 101 144.805 100.790Q146.520 100.580 147.990 100.300Q149.460 100.020 150.090 99.740M116.140 144.890L116.350 144.890L116.350 150L110.750 150L110.750 149.300Q110.750 149.300 111.205 149.300Q111.660 149.300 111.660 149.300Q113.480 149.300 114.775 148.005Q116.070 146.710 116.140 144.890M116.350 101L116.350 106.110L116.140 106.110Q116.070 104.290 114.775 102.995Q113.480 101.700 111.660 101.700Q111.660 101.700 111.205 101.700Q110.750 101.700 110.750 101.700L110.750 101L116.350 101M130.280 150L130.280 144.890L130.490 144.890Q130.560 146.710 131.855 148.005Q133.150 149.300 134.970 149.300Q134.970 149.300 135.390 149.300Q135.810 149.300 135.880 149.300L135.880 150 M162.310 101L176.660 101L176.660 150L162.310 150L162.310 101M176.450 124.100L192.550 124.100L192.550 127.600L176.450 127.600L176.450 124.100M176.450 101L196.260 101L196.260 104.570L176.450 104.570L176.450 101M184.290 127.460L192.550 127.460L192.550 135.580L191.850 135.580L191.850 135.230Q191.850 131.940 189.715 129.805Q187.580 127.670 184.290 127.600L184.290 127.460M191.850 116.120L192.550 116.120L192.550 124.240L184.290 124.240L184.290 124.100Q187.580 124.030 189.750 121.860Q191.920 119.690 191.850 116.400L191.850 116.120M186.530 104.360L196.260 104.360L196.260 114.160L195.560 114.160L195.560 113.600Q195.560 109.400 193.180 106.985Q190.800 104.570 186.530 104.500L186.530 104.360M196.260 99.740L196.260 101.770L187.720 101Q189.260 101 190.975 100.790Q192.690 100.580 194.160 100.300Q195.630 100.020 196.260 99.740M162.310 144.890L162.520 144.890L162.520 150L156.920 150L156.920 149.300Q156.920 149.300 157.375 149.300Q157.830 149.300 157.830 149.300Q159.650 149.300 160.945 148.005Q162.240 146.710 162.310 144.890M162.520 101L162.520 106.110L162.310 106.110Q162.240 104.290 160.945 102.995Q159.650 101.700 157.830 101.700Q157.830 101.700 157.375 101.700Q156.920 101.700 156.920 101.700L156.920 101L162.520 101M176.450 150L176.450 144.890L176.660 144.890Q176.730 146.710 178.025 148.005Q179.320 149.300 181.140 149.300Q181.140 149.300 181.560 149.300Q181.980 149.300 182.050 149.300L182.050 150" fill="#F4EEE1"/>
  <path d="M61.086 171.400L63.786 171.400L63.786 184L61.086 184L61.086 171.400M63.732 183.226L68.538 183.226L68.970 184L63.732 184L63.732 183.226M63.732 177.412L67.872 177.412L67.872 178.168L63.732 178.168L63.732 177.412M63.732 171.400L68.754 171.400L68.754 172.174L63.732 172.174L63.732 171.400M69.672 180.310L69.852 180.310L69.024 184L65.496 184L66.144 183.226Q67.044 183.226 67.728 182.875Q68.412 182.524 68.898 181.867Q69.384 181.210 69.672 180.310M66.162 178.132L67.872 178.132L67.872 179.860L67.692 179.860L67.692 179.716Q67.692 179.050 67.260 178.618Q66.828 178.186 66.162 178.168L66.162 178.132M67.692 175.720L67.872 175.720L67.872 177.448L66.162 177.448L66.162 177.412Q66.828 177.394 67.260 176.953Q67.692 176.512 67.692 175.846L67.692 175.720M66.738 172.120L68.754 172.120L68.754 174.226L68.574 174.226L68.574 174.010Q68.574 173.182 68.079 172.678Q67.584 172.174 66.738 172.156L66.738 172.120M68.754 171.076L68.754 171.598L66.558 171.400Q66.954 171.400 67.395 171.346Q67.836 171.292 68.214 171.220Q68.592 171.148 68.754 171.076M61.086 182.686L61.140 182.686L61.140 184L59.700 184L59.700 183.820Q59.700 183.820 59.817 183.820Q59.934 183.820 59.934 183.820Q60.402 183.820 60.735 183.487Q61.068 183.154 61.086 182.686M61.140 171.400L61.140 172.714L61.086 172.714Q61.068 172.246 60.735 171.913Q60.402 171.580 59.934 171.580Q59.934 171.580 59.817 171.580Q59.700 171.580 59.700 171.580L59.700 171.400 M82.306 171.148Q82.666 171.148 83.197 171.184Q83.728 171.220 84.295 171.283Q84.862 171.346 85.285 171.409Q85.708 171.472 85.870 171.544L85.654 173.974L85.474 173.974Q85.474 173.038 84.781 172.471Q84.088 171.904 82.936 171.904Q81.892 171.904 81.253 172.408Q80.614 172.912 80.578 173.632Q80.560 174.172 80.920 174.568Q81.280 174.964 81.838 175.306L85.276 177.538Q86.104 178.006 86.527 178.762Q86.950 179.518 86.896 180.526Q86.806 182.290 85.546 183.271Q84.286 184.252 82.126 184.252Q81.334 184.252 80.587 184.117Q79.840 183.982 79.264 183.739Q78.688 183.496 78.346 183.154Q78.202 182.758 78.220 182.200Q78.238 181.642 78.391 181.066Q78.544 180.490 78.778 180.112L78.940 180.112Q78.868 181.030 79.273 181.813Q79.678 182.596 80.461 183.055Q81.244 183.514 82.324 183.496Q83.512 183.478 84.160 182.893Q84.808 182.308 84.808 181.480Q84.808 180.922 84.475 180.472Q84.142 180.022 83.386 179.608L80.236 177.520Q79.282 176.980 78.850 176.134Q78.418 175.288 78.508 174.298Q78.598 173.362 79.066 172.651Q79.534 171.940 80.353 171.544Q81.172 171.148 82.306 171.148M83.728 171.328L85.888 171.328L85.852 171.706L83.728 171.706 M99.386 171.454L102.086 171.454L102.086 184L99.386 184L99.386 171.454M94.976 171.382L106.496 171.382L106.496 172.138L94.976 172.138L94.976 171.382M104.480 172.084L106.496 172.084L106.496 174.208L106.316 174.190L106.316 173.992Q106.316 173.146 105.821 172.651Q105.326 172.156 104.480 172.138L104.480 172.084M106.496 171.058L106.496 171.580L104.300 171.382Q104.696 171.382 105.137 171.328Q105.578 171.274 105.956 171.202Q106.334 171.130 106.496 171.058M99.386 182.686L99.440 182.686L99.440 184L98 184L98 183.820Q98 183.820 98.117 183.820Q98.234 183.820 98.234 183.820Q98.702 183.820 99.035 183.487Q99.368 183.154 99.386 182.686M102.032 184L102.032 182.686L102.086 182.686Q102.104 183.154 102.437 183.487Q102.770 183.820 103.238 183.820Q103.238 183.820 103.355 183.820Q103.472 183.820 103.472 183.820L103.472 184L102.032 184M94.976 172.084L96.974 172.084L96.974 172.138Q96.146 172.156 95.651 172.651Q95.156 173.146 95.156 173.992L95.156 174.190L94.976 174.208L94.976 172.084M94.976 171.580L94.976 171.058Q95.156 171.130 95.525 171.202Q95.894 171.274 96.344 171.328Q96.794 171.382 97.172 171.382 M114.072 184.180Q113.532 184.180 113.154 183.802Q112.776 183.424 112.776 182.884Q112.776 182.326 113.154 181.948Q113.532 181.570 114.072 181.570Q114.630 181.570 115.008 181.948Q115.386 182.326 115.386 182.884Q115.386 183.424 115.008 183.802Q114.630 184.180 114.072 184.180 M136.460 175.234L136.280 175.234L135.416 172.462Q135.884 172.048 136.559 171.760Q137.234 171.472 138.017 171.310Q138.800 171.148 139.556 171.148Q140.906 171.148 141.968 171.589Q143.030 172.030 143.624 172.831Q144.218 173.632 144.218 174.784Q144.218 175.666 143.840 176.503Q143.462 177.340 142.841 178.087Q142.220 178.834 141.500 179.500Q140.780 180.166 140.087 180.706Q139.394 181.246 138.854 181.678L142.544 181.678Q143.084 181.678 143.489 181.498Q143.894 181.318 144.227 180.931Q144.560 180.544 144.866 179.932L145.046 179.932L143.984 184L135.380 184L135.380 183.820Q136.100 183.010 136.910 182.101Q137.720 181.192 138.503 180.238Q139.286 179.284 139.934 178.312Q140.582 177.340 140.960 176.395Q141.338 175.450 141.338 174.586Q141.338 173.308 140.690 172.570Q140.042 171.832 138.926 171.904Q137.738 171.976 137.099 172.813Q136.460 173.650 136.460 175.234 M158.670 171.148Q160.254 171.148 161.379 171.958Q162.504 172.768 163.107 174.235Q163.710 175.702 163.710 177.700Q163.710 179.698 163.107 181.165Q162.504 182.632 161.379 183.442Q160.254 184.252 158.670 184.252Q157.086 184.252 155.952 183.442Q154.818 182.632 154.215 181.165Q153.612 179.698 153.612 177.700Q153.612 175.702 154.215 174.235Q154.818 172.768 155.952 171.958Q157.086 171.148 158.670 171.148M158.670 171.904Q157.554 171.904 156.978 173.371Q156.402 174.838 156.402 177.700Q156.402 180.562 156.978 182.029Q157.554 183.496 158.670 183.496Q159.768 183.496 160.344 182.029Q160.920 180.562 160.920 177.700Q160.920 174.838 160.344 173.371Q159.768 171.904 158.670 171.904 M172.978 175.234L172.798 175.234L171.934 172.462Q172.402 172.048 173.077 171.760Q173.752 171.472 174.535 171.310Q175.318 171.148 176.074 171.148Q177.424 171.148 178.486 171.589Q179.548 172.030 180.142 172.831Q180.736 173.632 180.736 174.784Q180.736 175.666 180.358 176.503Q179.980 177.340 179.359 178.087Q178.738 178.834 178.018 179.500Q177.298 180.166 176.605 180.706Q175.912 181.246 175.372 181.678L179.062 181.678Q179.602 181.678 180.007 181.498Q180.412 181.318 180.745 180.931Q181.078 180.544 181.384 179.932L181.564 179.932L180.502 184L171.898 184L171.898 183.820Q172.618 183.010 173.428 182.101Q174.238 181.192 175.021 180.238Q175.804 179.284 176.452 178.312Q177.100 177.340 177.478 176.395Q177.856 175.450 177.856 174.586Q177.856 173.308 177.208 172.570Q176.560 171.832 175.444 171.904Q174.256 171.976 173.617 172.813Q172.978 173.650 172.978 175.234 M195.188 171.148Q196.772 171.148 197.897 171.958Q199.022 172.768 199.625 174.235Q200.228 175.702 200.228 177.700Q200.228 179.698 199.625 181.165Q199.022 182.632 197.897 183.442Q196.772 184.252 195.188 184.252Q193.604 184.252 192.470 183.442Q191.336 182.632 190.733 181.165Q190.130 179.698 190.130 177.700Q190.130 175.702 190.733 174.235Q191.336 172.768 192.470 171.958Q193.604 171.148 195.188 171.148M195.188 171.904Q194.072 171.904 193.496 173.371Q192.920 174.838 192.920 177.700Q192.920 180.562 193.496 182.029Q194.072 183.496 195.188 183.496Q196.286 183.496 196.862 182.029Q197.438 180.562 197.438 177.700Q197.438 174.838 196.862 173.371Q196.286 171.904 195.188 171.904" fill="#C8A04B"/>
  <g transform="translate(130,216)">
    <path d="M-74,-13 L74,-13 L62,0 L74,13 L-74,13 L-62,0 Z" fill="#C8A04B"/>
    <path d="M-51.272-2.350L-49.413-2.350L-49.413 5L-51.272 5L-51.272-2.350M-49.445 1.136L-47.030 1.136L-47.030 1.619L-49.445 1.619L-49.445 1.136M-49.445-2.350L-46.494-2.350L-46.494-1.857L-49.445-1.857L-49.445-2.350M-48.143 1.598L-47.030 1.598L-47.030 2.711L-47.135 2.711L-47.135 2.637Q-47.135 2.207-47.418 1.918Q-47.702 1.629-48.143 1.619L-48.143 1.598M-47.135 0.044L-47.030 0.044L-47.030 1.157L-48.143 1.157L-48.143 1.136Q-47.702 1.125-47.413 0.832Q-47.124 0.537-47.135 0.107L-47.135 0.044M-47.786-1.888L-46.494-1.888L-46.494-0.565L-46.599-0.565L-46.599-0.670Q-46.599-1.216-46.914-1.536Q-47.229-1.857-47.786-1.867L-47.786-1.888M-46.494-2.539L-46.494-2.235L-47.775-2.350Q-47.544-2.350-47.287-2.382Q-47.030-2.413-46.809-2.455Q-46.589-2.497-46.494-2.539M-51.272 4.234L-51.240 4.234L-51.240 5L-52.080 5L-52.080 4.895Q-52.080 4.895-52.012 4.895Q-51.944 4.895-51.944 4.895Q-51.671 4.895-51.476 4.701Q-51.282 4.507-51.272 4.234M-51.240-2.350L-51.240-1.584L-51.272-1.584Q-51.282-1.857-51.476-2.051Q-51.671-2.245-51.944-2.245Q-51.944-2.245-52.012-2.245Q-52.080-2.245-52.080-2.245L-52.080-2.350L-51.240-2.350M-49.445 5L-49.445 4.234L-49.413 4.234Q-49.403 4.507-49.208 4.701Q-49.014 4.895-48.741 4.895Q-48.741 4.895-48.678 4.895Q-48.615 4.895-48.605 4.895L-48.605 5 M-43.607-0.229L-42.830-2.581L-39.302 4.937L-41.507 4.937L-43.607-0.229M-45.875 4.234L-45.087 4.234Q-45.181 4.444-45.129 4.590Q-45.077 4.737-44.945 4.816Q-44.814 4.895-44.688 4.895L-44.593 4.895L-44.593 5L-46.893 5L-46.893 4.895Q-46.893 4.895-46.846 4.895Q-46.799 4.895-46.799 4.895Q-46.557 4.895-46.300 4.743Q-46.043 4.590-45.875 4.234M-42.924-2.581L-42.830-2.581L-42.819-1.122L-45.413 4.968L-46.221 4.968L-43.491-1.111Q-43.439-1.185-43.360-1.379Q-43.281-1.573-43.181-1.804Q-43.081-2.035-43.008-2.245Q-42.934-2.455-42.924-2.581M-44.888 2.616L-41.853 2.616L-41.853 3.099L-44.888 3.099L-44.888 2.616M-41.800 4.234L-39.638 4.234Q-39.470 4.590-39.212 4.743Q-38.955 4.895-38.714 4.895Q-38.714 4.895-38.672 4.895Q-38.630 4.895-38.630 4.895L-38.630 5L-42.294 5L-42.294 4.895L-42.200 4.895Q-41.989 4.895-41.827 4.722Q-41.664 4.548-41.800 4.234 M-34.892 4.234L-30.681-2.497L-30.597-1.216L-33.873 4.045Q-33.873 4.045-33.978 4.228Q-34.083 4.412-34.188 4.685Q-34.293 4.958-34.293 5.231L-34.388 5.231L-34.892 4.234M-38.241 4.234L-38.010 4.234L-38.010 5L-39.175 5L-39.175 4.895Q-39.165 4.895-39.086 4.895Q-39.008 4.895-39.008 4.895Q-38.724 4.895-38.504 4.722Q-38.283 4.548-38.241 4.234M-37.569 4.402L-37.495 4.402Q-37.495 4.412-37.495 4.423Q-37.495 4.433-37.495 4.454Q-37.495 4.622-37.375 4.764Q-37.254 4.906-37.086 4.906L-36.918 4.906L-36.918 5L-37.569 5L-37.569 4.402M-38.346 5L-37.349-2.497L-37.254-2.497L-36.824-1.300L-37.569 5L-38.346 5M-37.538 0.422L-37.254-2.497L-33.684 2.847L-34.388 5.231L-37.538 0.422M-30.681-2.497L-30.587-2.497L-29.557 5L-31.521 5L-32.035 0.674L-30.681-2.497M-29.883 5L-29.883 4.234L-29.652 4.234Q-29.599 4.548-29.384 4.722Q-29.169 4.895-28.886 4.895Q-28.886 4.895-28.807 4.895Q-28.728 4.895-28.718 4.895L-28.718 5L-29.883 5M-31.584 4.402L-31.511 4.402L-31.511 5L-32.161 5L-32.161 4.906L-31.993 4.906Q-31.825 4.906-31.705 4.764Q-31.584 4.622-31.584 4.454Q-31.584 4.433-31.584 4.423Q-31.584 4.412-31.584 4.402 M-27.720-2.350L-25.861-2.350L-25.861 5L-27.720 5L-27.720-2.350M-27.720 4.234L-27.689 4.234L-27.689 5L-28.529 5L-28.529 4.895Q-28.529 4.895-28.460 4.895Q-28.392 4.895-28.392 4.895Q-28.119 4.895-27.925 4.701Q-27.730 4.507-27.720 4.234M-27.689-2.350L-27.689-1.584L-27.720-1.584Q-27.730-1.857-27.925-2.051Q-28.119-2.245-28.392-2.245Q-28.392-2.245-28.460-2.245Q-28.529-2.245-28.529-2.245L-28.529-2.350L-27.689-2.350M-25.893 5L-25.893 4.234L-25.861 4.234Q-25.851 4.507-25.657 4.701Q-25.463 4.895-25.190 4.895Q-25.190 4.895-25.127 4.895Q-25.064 4.895-25.053 4.895L-25.053 5L-25.893 5M-25.861-1.584L-25.893-1.584L-25.893-2.350L-25.053-2.350L-25.053-2.245Q-25.064-2.245-25.127-2.245Q-25.190-2.245-25.190-2.245Q-25.463-2.245-25.657-2.051Q-25.851-1.857-25.861-1.584 M-23.499-2.350L-21.640-2.350L-21.640 5L-23.499 5L-23.499-2.350M-21.672 4.507L-18.890 4.507L-18.543 5L-21.672 5L-21.672 4.507M-18.175 2.711L-18.081 2.711L-18.512 5L-20.685 5L-20.307 4.507Q-19.793 4.507-19.373 4.291Q-18.953 4.076-18.648 3.672Q-18.343 3.268-18.175 2.711M-23.499 4.234L-23.468 4.234L-23.468 5L-24.308 5L-24.308 4.895Q-24.308 4.895-24.239 4.895Q-24.171 4.895-24.171 4.895Q-23.898 4.895-23.704 4.701Q-23.510 4.507-23.499 4.234M-23.468-2.350L-23.468-1.584L-23.499-1.584Q-23.510-1.857-23.704-2.051Q-23.898-2.245-24.171-2.245Q-24.171-2.245-24.239-2.245Q-24.308-2.245-24.308-2.245L-24.308-2.350L-23.468-2.350M-21.640-1.584L-21.672-1.584L-21.672-2.350L-20.832-2.350L-20.832-2.245Q-20.843-2.245-20.905-2.245Q-20.969-2.245-20.969-2.245Q-21.242-2.245-21.436-2.051Q-21.630-1.857-21.640-1.584 M-18.606-2.340L-16.517-2.340L-14.343 1.598L-16.160 1.672L-18.606-2.340M-16.181 1.619L-14.312 1.619L-14.312 5L-16.181 5L-16.181 1.619M-15.026 1.724L-12.684-2.340L-11.802-2.340L-14.437 1.818L-15.026 1.724M-12.254-1.626L-13.115-1.594Q-13.030-1.741-13.073-1.893Q-13.115-2.046-13.225-2.145Q-13.335-2.245-13.482-2.245Q-13.482-2.245-13.545-2.245Q-13.608-2.245-13.608-2.245L-13.608-2.350L-11.046-2.350L-11.046-2.245L-11.193-2.245Q-11.519-2.245-11.807-2.056Q-12.096-1.867-12.254-1.626M-16.107-1.594L-18.175-1.626Q-18.323-1.867-18.606-2.056Q-18.890-2.245-19.226-2.245L-19.373-2.245L-19.373-2.350L-15.614-2.350L-15.614-2.245Q-15.614-2.245-15.677-2.245Q-15.740-2.245-15.740-2.245Q-15.971-2.245-16.097-2.030Q-16.223-1.815-16.107-1.594M-16.181 4.234L-16.149 4.234L-16.149 5L-16.989 5L-16.989 4.895Q-16.989 4.895-16.926 4.895Q-16.863 4.895-16.853 4.895Q-16.580 4.895-16.385 4.701Q-16.191 4.507-16.181 4.234M-14.343 5L-14.343 4.234L-14.312 4.234Q-14.312 4.507-14.112 4.701Q-13.913 4.895-13.640 4.895Q-13.640 4.895-13.577 4.895Q-13.514 4.895-13.514 4.895L-13.514 5 M-4.725-2.497Q-4.295-2.497-3.864-2.418Q-3.434-2.340-3.082-2.177Q-2.730-2.014-2.562-1.752L-2.993-0.145L-3.087-0.145Q-3.087-0.607-3.208-1.038Q-3.328-1.468-3.602-1.741Q-3.875-2.014-4.358-2.014Q-4.862-2.014-5.177-1.689Q-5.492-1.363-5.492-0.870Q-5.492-0.282-5.024 0.264Q-4.557 0.810-3.686 1.577Q-3.455 1.777-3.176 2.018Q-2.898 2.259-2.651 2.470Q-2.405 2.680-2.300 2.774Q-1.659 3.330-1.166 3.756Q-0.672 4.181-0.278 4.470Q0.115 4.758 0.451 4.885L0.462 5Q-0.031 5.053-0.614 5.074Q-1.197 5.095-1.806 4.974Q-2.415 4.853-2.972 4.486Q-3.203 4.317-3.512 4.071Q-3.822 3.824-4.142 3.567Q-4.463 3.309-4.725 3.089Q-4.988 2.869-5.124 2.753Q-5.733 2.228-6.258 1.698Q-6.783 1.167-7.093 0.595Q-7.403 0.023-7.403-0.597Q-7.403-1.111-7.172-1.479Q-6.941-1.846-6.557-2.067Q-6.174-2.287-5.696-2.392Q-5.219-2.497-4.725-2.497M-0.987 1.304Q-0.998 1.871-1.113 2.417Q-1.229 2.963-1.470 3.446Q-1.711 3.929-2.131 4.302Q-2.551 4.675-3.197 4.890Q-3.843 5.105-4.757 5.105Q-5.198 5.105-5.707 5.042Q-6.216 4.979-6.720 4.827Q-7.224 4.675-7.639 4.407Q-8.054 4.139-8.306 3.735Q-8.558 3.330-8.558 2.753Q-8.558 2.280-8.384 1.939Q-8.211 1.598-7.928 1.362Q-7.644 1.125-7.324 0.989Q-7.004 0.853-6.704 0.789Q-6.405 0.726-6.195 0.737L-5.985 0.936Q-6.027 0.978-6.137 1.083Q-6.248 1.188-6.363 1.367Q-6.479 1.545-6.557 1.818Q-6.636 2.091-6.615 2.480Q-6.573 3.026-6.353 3.436Q-6.132 3.845-5.791 4.107Q-5.450 4.370-5.040 4.496Q-4.631 4.622-4.232 4.622Q-3.675 4.622-3.260 4.380Q-2.846 4.139-2.573 3.756Q-2.300 3.372-2.179 2.910Q-2.058 2.448-2.079 2.002Q-2.100 1.556-2.258 1.209Q-2.384 0.947-2.541 0.837Q-2.699 0.726-2.888 0.726L-3.045 0.726L-3.045 0.622L-0.483 0.622L-0.483 0.726L-0.630 0.726Q-0.872 0.726-0.924 0.889Q-0.977 1.052-0.987 1.304 M4.001-2.350L5.859-2.350L5.859 5L4.001 5L4.001-2.350M5.828 1.136L8.242 1.136L8.242 1.619L5.828 1.619L5.828 1.136M5.828-2.350L8.778-2.350L8.778-1.857L5.828-1.857L5.828-2.350M7.130 1.598L8.242 1.598L8.242 2.711L8.137 2.711L8.137 2.637Q8.137 2.207 7.854 1.918Q7.571 1.629 7.130 1.619L7.130 1.598M8.137 0.044L8.242 0.044L8.242 1.157L7.130 1.157L7.130 1.136Q7.571 1.125 7.859 0.832Q8.148 0.537 8.137 0.107L8.137 0.044M7.487-1.888L8.778-1.888L8.778-0.565L8.673-0.565L8.673-0.670Q8.673-1.216 8.358-1.536Q8.043-1.857 7.487-1.867L7.487-1.888M8.778-2.539L8.778-2.235L7.497-2.350Q7.728-2.350 7.985-2.382Q8.242-2.413 8.463-2.455Q8.684-2.497 8.778-2.539M4.001 4.234L4.032 4.234L4.032 5L3.192 5L3.192 4.895Q3.192 4.895 3.260 4.895Q3.329 4.895 3.329 4.895Q3.602 4.895 3.796 4.701Q3.990 4.507 4.001 4.234M4.032-2.350L4.032-1.584L4.001-1.584Q3.990-1.857 3.796-2.051Q3.602-2.245 3.329-2.245Q3.329-2.245 3.260-2.245Q3.192-2.245 3.192-2.245L3.192-2.350L4.032-2.350M5.828 5L5.828 4.234L5.859 4.234Q5.870 4.507 6.064 4.701Q6.258 4.895 6.531 4.895Q6.531 4.895 6.594 4.895Q6.657 4.895 6.668 4.895L6.668 5 M12.212-2.350L13.524-2.350Q13.997-2.350 14.469-2.256Q14.942-2.161 15.325-1.935Q15.708-1.710 15.934-1.326Q16.160-0.943 16.160-0.365Q16.160 0.054 15.997 0.485Q15.834 0.915 15.461 1.230Q15.088 1.545 14.459 1.629Q14.858 1.745 15.157 2.034Q15.456 2.322 15.645 2.616Q15.656 2.648 15.750 2.805Q15.845 2.963 15.997 3.194Q16.149 3.425 16.306 3.667Q16.464 3.908 16.611 4.097Q16.852 4.402 17.036 4.575Q17.220 4.748 17.414 4.816Q17.608 4.885 17.871 4.895L17.871 5L16.706 5Q16.107 5 15.608 4.911Q15.110 4.822 14.721 4.580Q14.333 4.338 14.039 3.856Q13.934 3.698 13.850 3.504Q13.766 3.309 13.681 3.115Q13.598 2.921 13.535 2.737Q13.472 2.553 13.419 2.391Q13.367 2.228 13.325 2.112Q13.199 1.755 13.036 1.603Q12.873 1.451 12.695 1.409L12.695 1.304Q12.726 1.304 12.805 1.304Q12.884 1.304 12.936 1.304Q13.230 1.304 13.482 1.178Q13.734 1.052 13.913 0.779Q14.091 0.506 14.165 0.054Q14.186-0.040 14.196-0.155Q14.207-0.271 14.196-0.418Q14.154-1.185 13.813-1.510Q13.472-1.836 12.978-1.846Q12.873-1.846 12.747-1.846Q12.621-1.846 12.506-1.846Q12.390-1.846 12.317-1.846Q12.317-1.846 12.290-1.972Q12.264-2.098 12.238-2.224Q12.212-2.350 12.212-2.350M10.479-2.350L12.348-2.350L12.348 5L10.479 5L10.479-2.350M10.479 4.234L10.511 4.234L10.511 5L9.671 5L9.671 4.895Q9.692 4.895 9.744 4.895Q9.797 4.895 9.807 4.895Q10.080 4.895 10.274 4.701Q10.469 4.507 10.479 4.234M10.511-2.350L10.511-1.584L10.479-1.584Q10.469-1.857 10.274-2.051Q10.080-2.245 9.807-2.245Q9.797-2.245 9.744-2.245Q9.692-2.245 9.671-2.245L9.671-2.350L10.511-2.350M12.317 5L12.317 4.234L12.348 4.234Q12.348 4.507 12.548 4.701Q12.747 4.895 13.020 4.895Q13.041 4.895 13.088 4.895Q13.136 4.895 13.146 4.895L13.146 5 M18.459-2.350L20.318-2.350L20.318 5L18.459 5L18.459-2.350M18.459 4.234L18.491 4.234L18.491 5L17.651 5L17.651 4.895Q17.651 4.895 17.719 4.895Q17.787 4.895 17.787 4.895Q18.060 4.895 18.254 4.701Q18.449 4.507 18.459 4.234M18.491-2.350L18.491-1.584L18.459-1.584Q18.449-1.857 18.254-2.051Q18.060-2.245 17.787-2.245Q17.787-2.245 17.719-2.245Q17.651-2.245 17.651-2.245L17.651-2.350L18.491-2.350M20.286 5L20.286 4.234L20.318 4.234Q20.328 4.507 20.522 4.701Q20.717 4.895 20.990 4.895Q20.990 4.895 21.053 4.895Q21.116 4.895 21.126 4.895L21.126 5L20.286 5M20.318-1.584L20.286-1.584L20.286-2.350L21.126-2.350L21.126-2.245Q21.116-2.245 21.053-2.245Q20.990-2.245 20.990-2.245Q20.717-2.245 20.522-2.051Q20.328-1.857 20.318-1.584 M22.680-2.350L24.539-2.350L24.539 5L22.680 5L22.680-2.350M24.507 4.507L27.290 4.507L27.636 5L24.507 5L24.507 4.507M24.507 1.136L26.922 1.136L26.922 1.619L24.507 1.619L24.507 1.136M24.507-2.350L27.458-2.350L27.458-1.857L24.507-1.857L24.507-2.350M28.004 2.711L28.098 2.711L27.668 5L25.494 5L25.872 4.507Q26.387 4.507 26.807 4.291Q27.227 4.076 27.531 3.672Q27.836 3.268 28.004 2.711M25.809 1.598L26.922 1.598L26.922 2.711L26.817 2.711L26.817 2.637Q26.817 2.207 26.534 1.918Q26.250 1.629 25.809 1.619L25.809 1.598M26.817 0.044L26.922 0.044L26.922 1.157L25.809 1.157L25.809 1.136Q26.250 1.125 26.539 0.832Q26.828 0.537 26.817 0.107L26.817 0.044M26.145-1.888L27.458-1.888L27.458-0.544L27.353-0.544L27.353-0.649Q27.353-1.206 27.032-1.531Q26.712-1.857 26.145-1.867L26.145-1.888M27.458-2.539L27.458-2.235L26.177-2.350Q26.408-2.350 26.665-2.382Q26.922-2.413 27.143-2.455Q27.363-2.497 27.458-2.539M22.680 4.234L22.712 4.234L22.712 5L21.872 5L21.872 4.895Q21.872 4.895 21.940 4.895Q22.008 4.895 22.008 4.895Q22.281 4.895 22.475 4.701Q22.670 4.507 22.680 4.234M22.712-2.350L22.712-1.584L22.680-1.584Q22.670-1.857 22.475-2.051Q22.281-2.245 22.008-2.245Q22.008-2.245 21.940-2.245Q21.872-2.245 21.872-2.245L21.872-2.350 M29.495-1.185L29.369-2.508L36.257 3.835L36.383 5.147L29.495-1.185M29.390 4.255L29.421 4.255L29.421 5L28.550 5L28.550 4.895Q28.550 4.895 28.644 4.895Q28.739 4.895 28.749 4.895Q29.012 4.895 29.201 4.706Q29.390 4.517 29.390 4.255M31.185 4.255L31.217 4.255Q31.217 4.517 31.406 4.706Q31.595 4.895 31.857 4.895Q31.868 4.895 31.962 4.895Q32.057 4.895 32.057 4.895L32.057 5L31.185 5L31.185 4.255M29.264-2.508L29.369-2.508L31.206-0.565L31.217 5L29.390 5L29.390-1.195Q29.390-1.794 29.327-2.151Q29.264-2.508 29.264-2.508M34.535-2.350L36.351-2.350L36.351 3.803Q36.351 4.213 36.388 4.517Q36.425 4.822 36.451 4.984Q36.477 5.147 36.477 5.147L36.383 5.147L34.535 3.079L34.535-2.350M36.320-2.350L37.191-2.350L37.191-2.245Q37.191-2.245 37.097-2.245Q37.002-2.245 37.002-2.245Q36.740-2.245 36.551-2.061Q36.362-1.878 36.351-1.605L36.320-1.605L36.320-2.350M33.684-2.245L33.684-2.350L34.556-2.350L34.556-1.605L34.535-1.605Q34.524-1.878 34.340-2.061Q34.157-2.245 33.884-2.245Q33.884-2.245 33.789-2.245Q33.695-2.245 33.684-2.245 M38.840-2.350L41.538-2.350Q42.819-2.350 43.738-1.909Q44.657-1.468 45.150-0.644Q45.644 0.180 45.644 1.325Q45.644 2.470 45.150 3.294Q44.657 4.118 43.738 4.559Q42.819 5 41.538 5L38.955 5L38.945 4.517Q39.344 4.517 39.711 4.517Q40.079 4.517 40.383 4.517Q40.688 4.517 40.908 4.517Q41.129 4.517 41.249 4.517Q41.370 4.517 41.370 4.517Q42.074 4.517 42.583 4.128Q43.092 3.740 43.365 3.026Q43.638 2.312 43.638 1.325Q43.638 0.338 43.365-0.376Q43.092-1.090 42.583-1.479Q42.074-1.867 41.370-1.867Q41.370-1.867 41.244-1.867Q41.118-1.867 40.882-1.867Q40.646-1.867 40.336-1.867Q40.026-1.867 39.643-1.867Q39.260-1.867 38.840-1.867L38.840-2.350M38.451-2.350L40.310-2.350L40.310 5L38.451 5L38.451-2.350M38.451 4.234L38.483 4.234L38.483 5L37.643 5L37.643 4.895Q37.643 4.895 37.711 4.895Q37.779 4.895 37.779 4.895Q38.052 4.895 38.246 4.701Q38.441 4.507 38.451 4.234M38.483-2.350L38.483-1.584L38.451-1.584Q38.451-1.857 38.252-2.051Q38.052-2.245 37.779-2.245Q37.779-2.245 37.716-2.245Q37.653-2.245 37.653-2.245L37.643-2.350 M49.035-2.497Q49.245-2.497 49.597-2.476Q49.949-2.455 50.321-2.418Q50.694-2.382 50.978-2.345Q51.261-2.308 51.356-2.266L51.188-0.764L51.083-0.764Q51.083-1.321 50.657-1.668Q50.232-2.014 49.508-2.014Q48.878-2.014 48.505-1.746Q48.132-1.479 48.111-1.069Q48.080-0.723 48.332-0.502Q48.584-0.282 48.941-0.093L50.925 1.020Q51.461 1.283 51.749 1.755Q52.038 2.228 51.996 2.900Q51.944 3.982 51.140 4.564Q50.337 5.147 48.962 5.147Q48.426 5.147 47.964 5.063Q47.502 4.979 47.156 4.827Q46.809 4.675 46.610 4.486Q46.515 4.244 46.531 3.887Q46.547 3.530 46.652 3.178Q46.757 2.826 46.904 2.606L46.998 2.606Q46.967 3.152 47.213 3.624Q47.460 4.097 47.954 4.380Q48.447 4.664 49.130 4.664Q49.854 4.654 50.227 4.328Q50.600 4.002 50.600 3.561Q50.600 3.225 50.369 2.958Q50.138 2.690 49.623 2.438L47.849 1.430Q47.208 1.104 46.919 0.564Q46.631 0.023 46.704-0.639Q46.757-1.216 47.051-1.631Q47.345-2.046 47.849-2.271Q48.353-2.497 49.035-2.497M49.970-2.392L51.377-2.392L51.345-2.172L49.970-2.172" fill="#10233F"/>
  </g>
  </g>
  <g transform="translate(184.0,40.5)">
  <path d="M8.922 17.800L18.352 17.800L18.352 50L8.922 50L8.922 17.800M18.214 47.654L30.312 47.654L32.152 50L18.214 50L18.214 47.654M33.578 39.328L34.038 39.328L32.290 50L22.354 50L24.010 47.654Q26.218 47.654 28.127 46.665Q30.036 45.676 31.462 43.813Q32.888 41.950 33.578 39.328M8.922 46.642L9.060 46.642L9.060 50L5.380 50L5.380 49.540Q5.380 49.540 5.679 49.540Q5.978 49.540 5.978 49.540Q7.174 49.540 8.025 48.689Q8.876 47.838 8.922 46.642M9.060 17.800L9.060 21.158L8.922 21.158Q8.876 19.962 8.025 19.111Q7.174 18.260 5.978 18.260Q5.978 18.260 5.679 18.260Q5.380 18.260 5.380 18.260L5.380 17.800L9.060 17.800M18.352 21.158L18.214 21.158L18.214 17.800L21.894 17.800L21.894 18.260Q21.848 18.260 21.572 18.260Q21.296 18.260 21.296 18.260Q20.100 18.260 19.249 19.111Q18.398 19.962 18.352 21.158 M47.056 28.472L51.058 16.696L66.974 49.724L55.934 49.724L47.056 28.472M37.534 46.642L41.168 46.642Q40.754 47.562 40.984 48.206Q41.214 48.850 41.789 49.195Q42.364 49.540 42.916 49.540L43.330 49.540L43.330 50L33.072 50L33.072 49.540Q33.072 49.540 33.279 49.540Q33.486 49.540 33.486 49.540Q34.544 49.540 35.671 48.873Q36.798 48.206 37.534 46.642M50.644 16.696L51.058 16.696L51.058 23.872L39.742 49.862L36.016 49.862L48.022 23.550Q48.252 23.136 48.643 22.239Q49.034 21.342 49.471 20.284Q49.908 19.226 50.253 18.260Q50.598 17.294 50.644 16.696M41.812 40.064L54.830 40.064L54.830 42.364L41.812 42.364L41.812 40.064M54.600 46.642L65.456 46.642Q66.238 48.206 67.342 48.873Q68.446 49.540 69.504 49.540Q69.504 49.540 69.688 49.540Q69.872 49.540 69.872 49.540L69.872 50L52.438 50L52.438 49.540L52.852 49.540Q53.772 49.540 54.485 48.781Q55.198 48.022 54.600 46.642 M77.738 51.012L65.318 18.076L75.208 18.076L81.832 34.544L77.738 51.012M89.422 17.064L89.836 17.064L90.986 22.170L79.394 45.906Q79.394 45.906 79.095 46.665Q78.796 47.424 78.497 48.574Q78.198 49.724 78.152 51.012L77.738 51.012L76.174 44.664L89.422 17.064M85.604 29.024L89.836 17.110L100.278 36.384L97.288 51.012L85.604 29.024M103.544 18.076L107.086 18.076L98.392 45.906Q98.392 45.906 98.162 46.711Q97.932 47.516 97.771 48.689Q97.610 49.862 97.748 51.012L97.288 51.012L95.494 46.458L103.544 18.076M106.120 21.112L102.670 21.112Q103.038 19.732 102.440 18.996Q101.842 18.260 100.922 18.260L100.508 18.260L100.508 17.800L110.536 17.800L110.536 18.260Q110.536 18.260 110.352 18.260Q110.168 18.260 110.168 18.260Q109.110 18.260 107.868 18.927Q106.626 19.594 106.120 21.112M76.450 21.112L66.468 21.112Q65.870 19.594 64.674 18.927Q63.478 18.260 62.420 18.260Q62.420 18.260 62.236 18.260Q62.052 18.260 62.052 18.260L62.052 17.800L78.566 17.800L78.566 18.260L78.152 18.260Q77.278 18.260 76.611 18.996Q75.944 19.732 76.450 21.112 M123.140 17.156Q124.152 17.156 125.854 17.248Q127.556 17.340 129.396 17.501Q131.236 17.662 132.616 17.823Q133.996 17.984 134.410 18.168L133.490 25.114L133.030 25.114Q133.030 22.584 131.075 21.020Q129.120 19.456 125.716 19.456Q122.910 19.456 121.254 20.537Q119.598 21.618 119.460 23.320Q119.322 24.976 120.587 25.896Q121.852 26.816 123.554 27.598L132.156 31.600Q134.732 32.750 136.204 34.958Q137.676 37.166 137.446 40.524Q137.124 45.446 133.329 48.045Q129.534 50.644 123.002 50.644Q120.334 50.644 118.172 50.230Q116.010 49.816 114.469 49.149Q112.928 48.482 112.100 47.654Q111.594 46.504 111.686 44.848Q111.778 43.192 112.307 41.559Q112.836 39.926 113.572 38.960L113.986 38.960Q113.848 41.352 114.998 43.514Q116.148 45.676 118.448 47.010Q120.748 48.344 123.968 48.344Q127.280 48.344 128.867 46.964Q130.454 45.584 130.454 43.836Q130.454 42.364 129.327 41.168Q128.200 39.972 125.578 38.776L118.080 35.280Q114.906 33.808 113.457 31.232Q112.008 28.656 112.422 25.390Q112.744 22.722 114.124 20.882Q115.504 19.042 117.781 18.099Q120.058 17.156 123.140 17.156M127.694 17.616L134.502 17.616L134.364 18.582L127.694 18.582 M160.906 17.156Q166.840 17.156 171.141 19.157Q175.442 21.158 177.742 24.884Q180.042 28.610 180.042 33.900Q180.042 39.144 177.742 42.893Q175.442 46.642 171.141 48.643Q166.840 50.644 160.906 50.644Q154.972 50.644 150.694 48.643Q146.416 46.642 144.116 42.916Q141.816 39.190 141.816 33.900Q141.816 28.656 144.116 24.907Q146.416 21.158 150.694 19.157Q154.972 17.156 160.906 17.156M160.906 48.344Q163.758 48.344 165.759 46.619Q167.760 44.894 168.818 41.674Q169.876 38.454 169.876 33.900Q169.876 29.346 168.818 26.126Q167.760 22.906 165.759 21.181Q163.758 19.456 160.906 19.456Q158.100 19.456 156.099 21.181Q154.098 22.906 153.040 26.126Q151.982 29.346 151.982 33.900Q151.982 38.454 153.040 41.674Q154.098 44.894 156.099 46.619Q158.100 48.344 160.906 48.344 M186.896 23.090L186.298 17.110L217.348 44.710L217.946 50.644L186.896 23.090M186.436 46.734L186.574 46.734L186.574 50L182.756 50L182.756 49.540Q182.756 49.540 183.170 49.540Q183.584 49.540 183.630 49.540Q184.780 49.540 185.608 48.712Q186.436 47.884 186.436 46.734M195.774 46.734L195.912 46.734Q195.912 47.884 196.740 48.712Q197.568 49.540 198.718 49.540Q198.764 49.540 199.178 49.540Q199.592 49.540 199.592 49.540L199.592 50L195.774 50L195.774 46.734M185.838 17.110L186.298 17.110L195.866 27.046L195.912 50L186.436 50L186.436 22.860Q186.436 20.146 186.137 18.628Q185.838 17.110 185.838 17.110M208.332 17.800L217.762 17.800L217.762 44.756Q217.762 46.642 217.923 47.976Q218.084 49.310 218.222 49.977Q218.360 50.644 218.360 50.644L217.946 50.644L208.332 39.972L208.332 17.800M217.624 17.800L221.442 17.800L221.442 18.260Q221.442 18.260 221.028 18.260Q220.614 18.260 220.614 18.260Q219.464 18.260 218.636 19.065Q217.808 19.870 217.762 21.066L217.624 21.066L217.624 17.800M204.606 18.260L204.606 17.800L208.424 17.800L208.424 21.066L208.332 21.066Q208.286 19.870 207.481 19.065Q206.676 18.260 205.480 18.260Q205.480 18.260 205.066 18.260Q204.652 18.260 204.606 18.260" fill="#10233F"/>
  <path d="M241.284 17.800L250.714 17.800L250.714 50L241.284 50L241.284 17.800M250.576 32.980L261.156 32.980L261.156 35.280L250.576 35.280L250.576 32.980M250.576 17.800L263.594 17.800L263.594 20.146L250.576 20.146L250.576 17.800M255.728 35.188L261.156 35.188L261.156 40.524L260.696 40.524L260.696 40.294Q260.696 38.132 259.293 36.729Q257.890 35.326 255.728 35.280L255.728 35.188M260.696 27.736L261.156 27.736L261.156 33.072L255.728 33.072L255.728 32.980Q257.890 32.934 259.316 31.508Q260.742 30.082 260.696 27.920L260.696 27.736M257.200 20.008L263.594 20.008L263.594 26.448L263.134 26.448L263.134 26.080Q263.134 23.320 261.570 21.733Q260.006 20.146 257.200 20.100L257.200 20.008M263.594 16.972L263.594 18.306L257.982 17.800Q258.994 17.800 260.121 17.662Q261.248 17.524 262.214 17.340Q263.180 17.156 263.594 16.972M241.284 46.642L241.422 46.642L241.422 50L237.742 50L237.742 49.540Q237.742 49.540 238.041 49.540Q238.340 49.540 238.340 49.540Q239.536 49.540 240.387 48.689Q241.238 47.838 241.284 46.642M241.422 17.800L241.422 21.158L241.284 21.158Q241.238 19.962 240.387 19.111Q239.536 18.260 238.340 18.260Q238.340 18.260 238.041 18.260Q237.742 18.260 237.742 18.260L237.742 17.800L241.422 17.800M250.576 50L250.576 46.642L250.714 46.642Q250.760 47.838 251.611 48.689Q252.462 49.540 253.658 49.540Q253.658 49.540 253.934 49.540Q254.210 49.540 254.256 49.540L254.256 50 M285.168 17.156Q287.146 17.156 289.124 17.478Q291.102 17.800 292.712 18.513Q294.322 19.226 295.058 20.422L292.896 27.920L292.482 27.920Q292.482 25.942 292.045 23.987Q291.608 22.032 290.458 20.744Q289.308 19.456 287.146 19.456Q285.030 19.456 283.742 20.767Q282.454 22.078 282.454 24.102Q282.454 26.632 284.547 29.001Q286.640 31.370 290.550 34.774Q291.516 35.602 292.735 36.660Q293.954 37.718 294.920 38.523Q295.886 39.328 295.978 39.420Q299.106 42.180 301.429 44.181Q303.752 46.182 305.500 47.493Q307.248 48.804 308.628 49.494L308.674 50Q306.236 50.276 303.453 50.414Q300.670 50.552 297.841 50.046Q295.012 49.540 292.436 47.884Q291.608 47.332 290.274 46.297Q288.940 45.262 287.491 44.089Q286.042 42.916 284.869 41.950Q283.696 40.984 283.190 40.570Q280.522 38.362 278.130 35.947Q275.738 33.532 274.266 30.933Q272.794 28.334 272.794 25.574Q272.794 23.182 273.898 21.549Q275.002 19.916 276.819 18.950Q278.636 17.984 280.821 17.570Q283.006 17.156 285.168 17.156M302.418 33.578Q302.234 36.016 301.682 38.431Q301.130 40.846 300.026 43.008Q298.922 45.170 296.990 46.849Q295.058 48.528 292.068 49.494Q289.078 50.460 284.754 50.460Q283.006 50.460 280.752 50.230Q278.498 50 276.175 49.402Q273.852 48.804 271.874 47.654Q269.896 46.504 268.677 44.710Q267.458 42.916 267.458 40.294Q267.458 38.040 268.332 36.453Q269.206 34.866 270.609 33.808Q272.012 32.750 273.576 32.175Q275.140 31.600 276.543 31.416Q277.946 31.232 278.820 31.416L279.832 32.244Q279.832 32.336 279.395 32.681Q278.958 33.026 278.406 33.762Q277.854 34.498 277.486 35.717Q277.118 36.936 277.256 38.776Q277.440 41.260 278.475 43.054Q279.510 44.848 281.028 45.975Q282.546 47.102 284.294 47.631Q286.042 48.160 287.606 48.160Q290.090 48.160 291.907 47.079Q293.724 45.998 294.897 44.273Q296.070 42.548 296.599 40.501Q297.128 38.454 297.036 36.499Q296.944 34.544 296.254 33.026Q295.702 31.830 295.012 31.370Q294.322 30.910 293.540 30.910L292.850 30.910L292.850 30.450L304.626 30.450L304.626 30.910L303.982 30.910Q302.924 30.910 302.717 31.646Q302.510 32.382 302.418 33.578 M314.056 17.800L323.486 17.800L323.486 50L314.056 50L314.056 17.800M323.348 32.980L333.928 32.980L333.928 35.280L323.348 35.280L323.348 32.980M323.348 17.800L336.366 17.800L336.366 20.146L323.348 20.146L323.348 17.800M328.500 35.188L333.928 35.188L333.928 40.524L333.468 40.524L333.468 40.294Q333.468 38.132 332.065 36.729Q330.662 35.326 328.500 35.280L328.500 35.188M333.468 27.736L333.928 27.736L333.928 33.072L328.500 33.072L328.500 32.980Q330.662 32.934 332.088 31.508Q333.514 30.082 333.468 27.920L333.468 27.736M329.972 20.008L336.366 20.008L336.366 26.448L335.906 26.448L335.906 26.080Q335.906 23.320 334.342 21.733Q332.778 20.146 329.972 20.100L329.972 20.008M336.366 16.972L336.366 18.306L330.754 17.800Q331.766 17.800 332.893 17.662Q334.020 17.524 334.986 17.340Q335.952 17.156 336.366 16.972M314.056 46.642L314.194 46.642L314.194 50L310.514 50L310.514 49.540Q310.514 49.540 310.813 49.540Q311.112 49.540 311.112 49.540Q312.308 49.540 313.159 48.689Q314.010 47.838 314.056 46.642M314.194 17.800L314.194 21.158L314.056 21.158Q314.010 19.962 313.159 19.111Q312.308 18.260 311.112 18.260Q311.112 18.260 310.813 18.260Q310.514 18.260 310.514 18.260L310.514 17.800L314.194 17.800M323.348 50L323.348 46.642L323.486 46.642Q323.532 47.838 324.383 48.689Q325.234 49.540 326.430 49.540Q326.430 49.540 326.706 49.540Q326.982 49.540 327.028 49.540L327.028 50" fill="#C8A04B"/>
  <path d="M6.717 76L4.793 76L4.793 65.470L9.122 65.470L9.122 66.796L6.717 66.796L6.717 69.864L8.680 69.864L8.680 71.203L6.717 71.203 M13.841 76L12.034 76L14.140 65.470L16.194 65.470L18.300 76L16.519 76L16.103 73.569L14.270 73.569L13.841 76M15.180 67.927L14.465 72.347L15.895 72.347 M23.851 76L22.213 76L22.213 65.470L23.552 65.470L26.113 71.476L26.113 65.470L27.699 65.470L27.699 76L26.425 76L23.851 69.708 M35.135 76L33.211 76L33.211 66.887L31.534 66.887L31.534 65.470L36.786 65.470L36.786 66.887L35.135 66.887 M41.323 76L39.516 76L41.622 65.470L43.676 65.470L45.782 76L44.001 76L43.585 73.569L41.752 73.569L41.323 76M42.662 67.927L41.947 72.347L43.377 72.347 M52.269 76.143Q51.320 76.143 50.683 75.772Q50.046 75.402 49.721 74.687Q49.396 73.972 49.357 72.932L51.008 72.607Q51.034 73.218 51.157 73.686Q51.281 74.154 51.535 74.407Q51.788 74.661 52.204 74.661Q52.672 74.661 52.867 74.382Q53.062 74.102 53.062 73.673Q53.062 72.984 52.750 72.542Q52.438 72.100 51.918 71.658L50.592 70.488Q50.033 70.007 49.701 69.415Q49.370 68.824 49.370 67.953Q49.370 66.705 50.098 66.029Q50.826 65.353 52.087 65.353Q52.828 65.353 53.322 65.581Q53.816 65.808 54.108 66.211Q54.401 66.614 54.544 67.127Q54.687 67.641 54.726 68.213L53.088 68.499Q53.062 68.005 52.977 67.615Q52.893 67.225 52.678 67.004Q52.464 66.783 52.048 66.783Q51.619 66.783 51.392 67.063Q51.164 67.342 51.164 67.758Q51.164 68.291 51.385 68.635Q51.606 68.980 52.022 69.344L53.335 70.501Q53.985 71.047 54.447 71.781Q54.908 72.516 54.908 73.556Q54.908 74.310 54.576 74.895Q54.245 75.480 53.654 75.811Q53.062 76.143 52.269 76.143 M62.123 76L60.290 76L60.290 71.983L58.158 65.470L59.952 65.470L61.252 69.643L62.474 65.470L64.229 65.470L62.123 71.983 M75.955 76L74.031 76L74.031 65.470L78.360 65.470L78.360 66.796L75.955 66.796L75.955 69.864L77.918 69.864L77.918 71.203L75.955 71.203 M85.120 76.143Q84.002 76.143 83.339 75.727Q82.676 75.311 82.390 74.531Q82.104 73.751 82.104 72.685L82.104 68.746Q82.104 67.680 82.390 66.919Q82.676 66.159 83.339 65.756Q84.002 65.353 85.120 65.353Q86.264 65.353 86.921 65.756Q87.577 66.159 87.870 66.919Q88.162 67.680 88.162 68.746L88.162 72.698Q88.162 73.751 87.870 74.525Q87.577 75.298 86.921 75.721Q86.264 76.143 85.120 76.143M85.120 74.726Q85.601 74.726 85.829 74.518Q86.056 74.310 86.134 73.946Q86.212 73.582 86.212 73.153L86.212 68.304Q86.212 67.862 86.134 67.511Q86.056 67.160 85.829 66.959Q85.601 66.757 85.120 66.757Q84.665 66.757 84.431 66.959Q84.197 67.160 84.119 67.511Q84.041 67.862 84.041 68.304L84.041 73.153Q84.041 73.582 84.112 73.946Q84.184 74.310 84.418 74.518Q84.652 74.726 85.120 74.726 M95.299 76.143Q94.181 76.143 93.518 75.727Q92.855 75.311 92.569 74.531Q92.283 73.751 92.283 72.685L92.283 68.746Q92.283 67.680 92.569 66.919Q92.855 66.159 93.518 65.756Q94.181 65.353 95.299 65.353Q96.443 65.353 97.100 65.756Q97.756 66.159 98.049 66.919Q98.341 67.680 98.341 68.746L98.341 72.698Q98.341 73.751 98.049 74.525Q97.756 75.298 97.100 75.721Q96.443 76.143 95.299 76.143M95.299 74.726Q95.780 74.726 96.008 74.518Q96.235 74.310 96.313 73.946Q96.391 73.582 96.391 73.153L96.391 68.304Q96.391 67.862 96.313 67.511Q96.235 67.160 96.008 66.959Q95.780 66.757 95.299 66.757Q94.844 66.757 94.610 66.959Q94.376 67.160 94.298 67.511Q94.220 67.862 94.220 68.304L94.220 73.153Q94.220 73.582 94.291 73.946Q94.363 74.310 94.597 74.518Q94.831 74.726 95.299 74.726 M105.517 76L103.593 76L103.593 66.887L101.916 66.887L101.916 65.470L107.168 65.470L107.168 66.887L105.517 66.887 M114.019 76L110.990 76L110.990 65.470L113.577 65.470Q114.279 65.470 114.844 65.600Q115.410 65.730 115.820 66.035Q116.229 66.341 116.450 66.861Q116.671 67.381 116.671 68.174Q116.671 68.811 116.496 69.266Q116.320 69.721 115.982 69.987Q115.644 70.254 115.137 70.345Q115.761 70.449 116.171 70.781Q116.580 71.112 116.782 71.645Q116.983 72.178 116.983 72.932Q116.983 73.686 116.794 74.264Q116.606 74.843 116.236 75.227Q115.865 75.610 115.313 75.805Q114.760 76 114.019 76M112.914 71.099L112.914 74.648L113.642 74.648Q114.513 74.648 114.825 74.225Q115.137 73.803 115.137 72.919Q115.137 72.282 114.987 71.885Q114.838 71.489 114.493 71.294Q114.149 71.099 113.577 71.099L112.914 71.099M112.914 66.809L112.914 69.773L113.564 69.773Q114.136 69.773 114.448 69.604Q114.760 69.435 114.883 69.084Q115.007 68.733 115.007 68.200Q115.007 67.641 114.819 67.335Q114.630 67.030 114.253 66.919Q113.876 66.809 113.291 66.809 M122.339 76L120.532 76L122.638 65.470L124.692 65.470L126.798 76L125.017 76L124.601 73.569L122.768 73.569L122.339 76M123.678 67.927L122.963 72.347L124.393 72.347 M135.183 76L130.711 76L130.711 65.470L132.635 65.470L132.635 74.674L135.183 74.674 M143.516 76L139.044 76L139.044 65.470L140.968 65.470L140.968 74.674L143.516 74.674 M157.868 76L153.396 76L153.396 65.470L155.320 65.470L155.320 74.674L157.868 74.674 M166.175 76L161.729 76L161.729 65.470L166.149 65.470L166.149 66.822L163.653 66.822L163.653 69.851L165.616 69.851L165.616 71.190L163.653 71.190L163.653 74.674L166.175 74.674 M171.427 76L169.620 76L171.726 65.470L173.780 65.470L175.886 76L174.105 76L173.689 73.569L171.856 73.569L171.427 76M172.766 67.927L172.051 72.347L173.481 72.347 M182.321 76.143Q181.281 76.143 180.670 75.701Q180.059 75.259 179.793 74.447Q179.526 73.634 179.526 72.529L179.526 68.993Q179.526 67.862 179.786 67.043Q180.046 66.224 180.703 65.788Q181.359 65.353 182.516 65.353Q183.595 65.353 184.232 65.717Q184.869 66.081 185.149 66.763Q185.428 67.446 185.428 68.421L185.428 68.967L183.595 68.967L183.595 68.369Q183.595 67.862 183.524 67.498Q183.452 67.134 183.238 66.945Q183.023 66.757 182.542 66.757Q182.035 66.757 181.808 67.004Q181.580 67.251 181.522 67.654Q181.463 68.057 181.463 68.538L181.463 72.945Q181.463 73.491 181.554 73.894Q181.645 74.297 181.892 74.511Q182.139 74.726 182.594 74.726Q183.062 74.726 183.309 74.492Q183.556 74.258 183.654 73.842Q183.751 73.426 183.751 72.854L183.751 71.866L182.620 71.866L182.620 70.657L185.480 70.657L185.480 76L184.245 76L184.102 74.960Q183.894 75.480 183.472 75.811Q183.049 76.143 182.321 76.143 M192.695 76.143Q191.525 76.143 190.875 75.714Q190.225 75.285 189.978 74.492Q189.731 73.699 189.731 72.594L189.731 65.470L191.603 65.470L191.603 72.815Q191.603 73.309 191.668 73.745Q191.733 74.180 191.974 74.447Q192.214 74.713 192.695 74.713Q193.202 74.713 193.430 74.447Q193.657 74.180 193.729 73.745Q193.800 73.309 193.800 72.815L193.800 65.470L195.659 65.470L195.659 72.594Q195.659 73.699 195.412 74.492Q195.165 75.285 194.522 75.714Q193.878 76.143 192.695 76.143 M204.473 76L200.027 76L200.027 65.470L204.447 65.470L204.447 66.822L201.951 66.822L201.951 69.851L203.914 69.851L203.914 71.190L201.951 71.190L201.951 74.674L204.473 74.674" fill="#6b7280"/>
  </g>
</svg>
