<svg xmlns="http://www.w3.org/2000/svg" viewBox="0 0 342.2 92" role="img" aria-label="Lawson F&amp;F Fantasy Football League wordmark — on dark">
  <title>Lawson F&amp;F Fantasy Football League wordmark — on dark</title>
  <path d="M8.922 17.800L18.352 17.800L18.352 50L8.922 50L8.922 17.800M18.214 47.654L30.312 47.654L32.152 50L18.214 50L18.214 47.654M33.578 39.328L34.038 39.328L32.290 50L22.354 50L24.010 47.654Q26.218 47.654 28.127 46.665Q30.036 45.676 31.462 43.813Q32.888 41.950 33.578 39.328M8.922 46.642L9.060 46.642L9.060 50L5.380 50L5.380 49.540Q5.380 49.540 5.679 49.540Q5.978 49.540 5.978 49.540Q7.174 49.540 8.025 48.689Q8.876 47.838 8.922 46.642M9.060 17.800L9.060 21.158L8.922 21.158Q8.876 19.962 8.025 19.111Q7.174 18.260 5.978 18.260Q5.978 18.260 5.679 18.260Q5.380 18.260 5.380 18.260L5.380 17.800L9.060 17.800M18.352 21.158L18.214 21.158L18.214 17.800L21.894 17.800L21.894 18.260Q21.848 18.260 21.572 18.260Q21.296 18.260 21.296 18.260Q20.100 18.260 19.249 19.111Q18.398 19.962 18.352 21.158 M47.056 28.472L51.058 16.696L66.974 49.724L55.934 49.724L47.056 28.472M37.534 46.642L41.168 46.642Q40.754 47.562 40.984 48.206Q41.214 48.850 41.789 49.195Q42.364 49.540 42.916 49.540L43.330 49.540L43.330 50L33.072 50L33.072 49.540Q33.072 49.540 33.279 49.540Q33.486 49.540 33.486 49.540Q34.544 49.540 35.671 48.873Q36.798 48.206 37.534 46.642M50.644 16.696L51.058 16.696L51.058 23.872L39.742 49.862L36.016 49.862L48.022 23.550Q48.252 23.136 48.643 22.239Q49.034 21.342 49.471 20.284Q49.908 19.226 50.253 18.260Q50.598 17.294 50.644 16.696M41.812 40.064L54.830 40.064L54.830 42.364L41.812 42.364L41.812 40.064M54.600 46.642L65.456 46.642Q66.238 48.206 67.342 48.873Q68.446 49.540 69.504 49.540Q69.504 49.540 69.688 49.540Q69.872 49.540 69.872 49.540L69.872 50L52.438 50L52.438 49.540L52.852 49.540Q53.772 49.540 54.485 48.781Q55.198 48.022 54.600 46.642 M77.738 51.012L65.318 18.076L75.208 18.076L81.832 34.544L77.738 51.012M89.422 17.064L89.836 17.064L90.986 22.170L79.394 45.906Q79.394 45.906 79.095 46.665Q78.796 47.424 78.497 48.574Q78.198 49.724 78.152 51.012L77.738 51.012L76.174 44.664L89.422 17.064M85.604 29.024L89.836 17.110L100.278 36.384L97.288 51.012L85.604 29.024M103.544 18.076L107.086 18.076L98.392 45.906Q98.392 45.906 98.162 46.711Q97.932 47.516 97.771 48.689Q97.610 49.862 97.748 51.012L97.288 51.012L95.494 46.458L103.544 18.076M106.120 21.112L102.670 21.112Q103.038 19.732 102.440 18.996Q101.842 18.260 100.922 18.260L100.508 18.260L100.508 17.800L110.536 17.800L110.536 18.260Q110.536 18.260 110.352 18.260Q110.168 18.260 110.168 18.260Q109.110 18.260 107.868 18.927Q106.626 19.594 106.120 21.112M76.450 21.112L66.468 21.112Q65.870 19.594 64.674 18.927Q63.478 18.260 62.420 18.260Q62.420 18.260 62.236 18.260Q62.052 18.260 62.052 18.260L62.052 17.800L78.566 17.800L78.566 18.260L78.152 18.260Q77.278 18.260 76.611 18.996Q75.944 19.732 76.450 21.112 M123.140 17.156Q124.152 17.156 125.854 17.248Q127.556 17.340 129.396 17.501Q131.236 17.662 132.616 17.823Q133.996 17.984 134.410 18.168L133.490 25.114L133.030 25.114Q133.030 22.584 131.075 21.020Q129.120 19.456 125.716 19.456Q122.910 19.456 121.254 20.537Q119.598 21.618 119.460 23.320Q119.322 24.976 120.587 25.896Q121.852 26.816 123.554 27.598L132.156 31.600Q134.732 32.750 136.204 34.958Q137.676 37.166 137.446 40.524Q137.124 45.446 133.329 48.045Q129.534 50.644 123.002 50.644Q120.334 50.644 118.172 50.230Q116.010 49.816 114.469 49.149Q112.928 48.482 112.100 47.654Q111.594 46.504 111.686 44.848Q111.778 43.192 112.307 41.559Q112.836 39.926 113.572 38.960L113.986 38.960Q113.848 41.352 114.998 43.514Q116.148 45.676 118.448 47.010Q120.748 48.344 123.968 48.344Q127.280 48.344 128.867 46.964Q130.454 45.584 130.454 43.836Q130.454 42.364 129.327 41.168Q128.200 39.972 125.578 38.776L118.080 35.280Q114.906 33.808 113.457 31.232Q112.008 28.656 112.422 25.390Q112.744 22.722 114.124 20.882Q115.504 19.042 117.781 18.099Q120.058 17.156 123.140 17.156M127.694 17.616L134.502 17.616L134.364 18.582L127.694 18.582 M160.906 17.156Q166.840 17.156 171.141 19.157Q175.442 21.158 177.742 24.884Q180.042 28.610 180.042 33.900Q180.042 39.144 177.742 42.893Q175.442 46.642 171.141 48.643Q166.840 50.644 160.906 50.644Q154.972 50.644 150.694 48.643Q146.416 46.642 144.116 42.916Q141.816 39.190 141.816 33.900Q141.816 28.656 144.116 24.907Q146.416 21.158 150.694 19.157Q154.972 17.156 160.906 17.156M160.906 48.344Q163.758 48.344 165.759 46.619Q167.760 44.894 168.818 41.674Q169.876 38.454 169.876 33.900Q169.876 29.346 168.818 26.126Q167.760 22.906 165.759 21.181Q163.758 19.456 160.906 19.456Q158.100 19.456 156.099 21.181Q154.098 22.906 153.040 26.126Q151.982 29.346 151.982 33.900Q151.982 38.454 153.040 41.674Q154.098 44.894 156.099 46.619Q158.100 48.344 160.906 48.344 M186.896 23.090L186.298 17.110L217.348 44.710L217.946 50.644L186.896 23.090M186.436 46.734L186.574 46.734L186.574 50L182.756 50L182.756 49.540Q182.756 49.540 183.170 49.540Q183.584 49.540 183.630 49.540Q184.780 49.540 185.608 48.712Q186.436 47.884 186.436 46.734M195.774 46.734L195.912 46.734Q195.912 47.884 196.740 48.712Q197.568 49.540 198.718 49.540Q198.764 49.540 199.178 49.540Q199.592 49.540 199.592 49.540L199.592 50L195.774 50L195.774 46.734M185.838 17.110L186.298 17.110L195.866 27.046L195.912 50L186.436 50L186.436 22.860Q186.436 20.146 186.137 18.628Q185.838 17.110 185.838 17.110M208.332 17.800L217.762 17.800L217.762 44.756Q217.762 46.642 217.923 47.976Q218.084 49.310 218.222 49.977Q218.360 50.644 218.360 50.644L217.946 50.644L208.332 39.972L208.332 17.800M217.624 17.800L221.442 17.800L221.442 18.260Q221.442 18.260 221.028 18.260Q220.614 18.260 220.614 18.260Q219.464 18.260 218.636 19.065Q217.808 19.870 217.762 21.066L217.624 21.066L217.624 17.800M204.606 18.260L204.606 17.800L208.424 17.800L208.424 21.066L208.332 21.066Q208.286 19.870 207.481 19.065Q206.676 18.260 205.480 18.260Q205.480 18.260 205.066 18.260Q204.652 18.260 204.606 18.260" fill="#F4EEE1"/>
  <path d="M241.284 17.800L250.714 17.800L250.714 50L241.284 50L241.284 17.800M250.576 32.980L261.156 32.980L261.156 35.280L250.576 35.280L250.576 32.980M250.576 17.800L263.594 17.800L263.594 20.146L250.576 20.146L250.576 17.800M255.728 35.188L261.156 35.188L261.156 40.524L260.696 40.524L260.696 40.294Q260.696 38.132 259.293 36.729Q257.890 35.326 255.728 35.280L255.728 35.188M260.696 27.736L261.156 27.736L261.156 33.072L255.728 33.072L255.728 32.980Q257.890 32.934 259.316 31.508Q260.742 30.082 260.696 27.920L260.696 27.736M257.200 20.008L263.594 20.008L263.594 26.448L263.134 26.448L263.134 26.080Q263.134 23.320 261.570 21.733Q260.006 20.146 257.200 20.100L257.200 20.008M263.594 16.972L263.594 18.306L257.982 17.800Q258.994 17.800 260.121 17.662Q261.248 17.524 262.214 17.340Q263.180 17.156 263.594 16.972M241.284 46.642L241.422 46.642L241.422 50L237.742 50L237.742 49.540Q237.742 49.540 238.041 49.540Q238.340 49.540 238.340 49.540Q239.536 49.540 240.387 48.689Q241.238 47.838 241.284 46.642M241.422 17.800L241.422 21.158L241.284 21.158Q241.238 19.962 240.387 19.111Q239.536 18.260 238.340 18.260Q238.340 18.260 238.041 18.260Q237.742 18.260 237.742 18.260L237.742 17.800L241.422 17.800M250.576 50L250.576 46.642L250.714 46.642Q250.760 47.838 251.611 48.689Q252.462 49.540 253.658 49.540Q253.658 49.540 253.934 49.540Q254.210 49.540 254.256 49.540L254.256 50 M285.168 17.156Q287.146 17.156 289.124 17.478Q291.102 17.800 292.712 18.513Q294.322 19.226 295.058 20.422L292.896 27.920L292.482 27.920Q292.482 25.942 292.045 23.987Q291.608 22.032 290.458 20.744Q289.308 19.456 287.146 19.456Q285.030 19.456 283.742 20.767Q282.454 22.078 282.454 24.102Q282.454 26.632 284.547 29.001Q286.640 31.370 290.550 34.774Q291.516 35.602 292.735 36.660Q293.954 37.718 294.920 38.523Q295.886 39.328 295.978 39.420Q299.106 42.180 301.429 44.181Q303.752 46.182 305.500 47.493Q307.248 48.804 308.628 49.494L308.674 50Q306.236 50.276 303.453 50.414Q300.670 50.552 297.841 50.046Q295.012 49.540 292.436 47.884Q291.608 47.332 290.274 46.297Q288.940 45.262 287.491 44.089Q286.042 42.916 284.869 41.950Q283.696 40.984 283.190 40.570Q280.522 38.362 278.130 35.947Q275.738 33.532 274.266 30.933Q272.794 28.334 272.794 25.574Q272.794 23.182 273.898 21.549Q275.002 19.916 276.819 18.950Q278.636 17.984 280.821 17.570Q283.006 17.156 285.168 17.156M302.418 33.578Q302.234 36.016 301.682 38.431Q301.130 40.846 300.026 43.008Q298.922 45.170 296.990 46.849Q295.058 48.528 292.068 49.494Q289.078 50.460 284.754 50.460Q283.006 50.460 280.752 50.230Q278.498 50 276.175 49.402Q273.852 48.804 271.874 47.654Q269.896 46.504 268.677 44.710Q267.458 42.916 267.458 40.294Q267.458 38.040 268.332 36.453Q269.206 34.866 270.609 33.808Q272.012 32.750 273.576 32.175Q275.140 31.600 276.543 31.416Q277.946 31.232 278.820 31.416L279.832 32.244Q279.832 32.336 279.395 32.681Q278.958 33.026 278.406 33.762Q277.854 34.498 277.486 35.717Q277.118 36.936 277.256 38.776Q277.440 41.260 278.475 43.054Q279.510 44.848 281.028 45.975Q282.546 47.102 284.294 47.631Q286.042 48.160 287.606 48.160Q290.090 48.160 291.907 47.079Q293.724 45.998 294.897 44.273Q296.070 42.548 296.599 40.501Q297.128 38.454 297.036 36.499Q296.944 34.544 296.254 33.026Q295.702 31.830 295.012 31.370Q294.322 30.910 293.540 30.910L292.850 30.910L292.850 30.450L304.626 30.450L304.626 30.910L303.982 30.910Q302.924 30.910 302.717 31.646Q302.510 32.382 302.418 33.578 M314.056 17.800L323.486 17.800L323.486 50L314.056 50L314.056 17.800M323.348 32.980L333.928 32.980L333.928 35.280L323.348 35.280L323.348 32.980M323.348 17.800L336.366 17.800L336.366 20.146L323.348 20.146L323.348 17.800M328.500 35.188L333.928 35.188L333.928 40.524L333.468 40.524L333.468 40.294Q333.468 38.132 332.065 36.729Q330.662 35.326 328.500 35.280L328.500 35.188M333.468 27.736L333.928 27.736L333.928 33.072L328.500 33.072L328.500 32.980Q330.662 32.934 332.088 31.508Q333.514 30.082 333.468 27.920L333.468 27.736M329.972 20.008L336.366 20.008L336.366 26.448L335.906 26.448L335.906 26.080Q335.906 23.320 334.342 21.733Q332.778 20.146 329.972 20.100L329.972 20.008M336.366 16.972L336.366 18.306L330.754 17.800Q331.766 17.800 332.893 17.662Q334.020 17.524 334.986 17.340Q335.952 17.156 336.366 16.972M314.056 46.642L314.194 46.642L314.194 50L310.514 50L310.514 49.540Q310.514 49.540 310.813 49.540Q311.112 49.540 311.112 49.540Q312.308 49.540 313.159 48.689Q314.010 47.838 314.056 46.642M314.194 17.800L314.194 21.158L314.056 21.158Q314.010 19.962 313.159 19.111Q312.308 18.260 311.112 18.260Q311.112 18.260 310.813 18.260Q310.514 18.260 310.514 18.260L310.514 17.800L314.194 17.800M323.348 50L323.348 46.642L323.486 46.642Q323.532 47.838 324.383 48.689Q325.234 49.540 326.430 49.540Q326.430 49.540 326.706 49.540Q326.982 49.540 327.028 49.540L327.028 50" fill="#C8A04B"/>
  <path d="M6.717 76L4.793 76L4.793 65.470L9.122 65.470L9.122 66.796L6.717 66.796L6.717 69.864L8.680 69.864L8.680 71.203L6.717 71.203 M13.841 76L12.034 76L14.140 65.470L16.194 65.470L18.300 76L16.519 76L16.103 73.569L14.270 73.569L13.841 76M15.180 67.927L14.465 72.347L15.895 72.347 M23.851 76L22.213 76L22.213 65.470L23.552 65.470L26.113 71.476L26.113 65.470L27.699 65.470L27.699 76L26.425 76L23.851 69.708 M35.135 76L33.211 76L33.211 66.887L31.534 66.887L31.534 65.470L36.786 65.470L36.786 66.887L35.135 66.887 M41.323 76L39.516 76L41.622 65.470L43.676 65.470L45.782 76L44.001 76L43.585 73.569L41.752 73.569L41.323 76M42.662 67.927L41.947 72.347L43.377 72.347 M52.269 76.143Q51.320 76.143 50.683 75.772Q50.046 75.402 49.721 74.687Q49.396 73.972 49.357 72.932L51.008 72.607Q51.034 73.218 51.157 73.686Q51.281 74.154 51.535 74.407Q51.788 74.661 52.204 74.661Q52.672 74.661 52.867 74.382Q53.062 74.102 53.062 73.673Q53.062 72.984 52.750 72.542Q52.438 72.100 51.918 71.658L50.592 70.488Q50.033 70.007 49.701 69.415Q49.370 68.824 49.370 67.953Q49.370 66.705 50.098 66.029Q50.826 65.353 52.087 65.353Q52.828 65.353 53.322 65.581Q53.816 65.808 54.108 66.211Q54.401 66.614 54.544 67.127Q54.687 67.641 54.726 68.213L53.088 68.499Q53.062 68.005 52.977 67.615Q52.893 67.225 52.678 67.004Q52.464 66.783 52.048 66.783Q51.619 66.783 51.392 67.063Q51.164 67.342 51.164 67.758Q51.164 68.291 51.385 68.635Q51.606 68.980 52.022 69.344L53.335 70.501Q53.985 71.047 54.447 71.781Q54.908 72.516 54.908 73.556Q54.908 74.310 54.576 74.895Q54.245 75.480 53.654 75.811Q53.062 76.143 52.269 76.143 M62.123 76L60.290 76L60.290 71.983L58.158 65.470L59.952 65.470L61.252 69.643L62.474 65.470L64.229 65.470L62.123 71.983 M75.955 76L74.031 76L74.031 65.470L78.360 65.470L78.360 66.796L75.955 66.796L75.955 69.864L77.918 69.864L77.918 71.203L75.955 71.203 M85.120 76.143Q84.002 76.143 83.339 75.727Q82.676 75.311 82.390 74.531Q82.104 73.751 82.104 72.685L82.104 68.746Q82.104 67.680 82.390 66.919Q82.676 66.159 83.339 65.756Q84.002 65.353 85.120 65.353Q86.264 65.353 86.921 65.756Q87.577 66.159 87.870 66.919Q88.162 67.680 88.162 68.746L88.162 72.698Q88.162 73.751 87.870 74.525Q87.577 75.298 86.921 75.721Q86.264 76.143 85.120 76.143M85.120 74.726Q85.601 74.726 85.829 74.518Q86.056 74.310 86.134 73.946Q86.212 73.582 86.212 73.153L86.212 68.304Q86.212 67.862 86.134 67.511Q86.056 67.160 85.829 66.959Q85.601 66.757 85.120 66.757Q84.665 66.757 84.431 66.959Q84.197 67.160 84.119 67.511Q84.041 67.862 84.041 68.304L84.041 73.153Q84.041 73.582 84.112 73.946Q84.184 74.310 84.418 74.518Q84.652 74.726 85.120 74.726 M95.299 76.143Q94.181 76.143 93.518 75.727Q92.855 75.311 92.569 74.531Q92.283 73.751 92.283 72.685L92.283 68.746Q92.283 67.680 92.569 66.919Q92.855 66.159 93.518 65.756Q94.181 65.353 95.299 65.353Q96.443 65.353 97.100 65.756Q97.756 66.159 98.049 66.919Q98.341 67.680 98.341 68.746L98.341 72.698Q98.341 73.751 98.049 74.525Q97.756 75.298 97.100 75.721Q96.443 76.143 95.299 76.143M95.299 74.726Q95.780 74.726 96.008 74.518Q96.235 74.310 96.313 73.946Q96.391 73.582 96.391 73.153L96.391 68.304Q96.391 67.862 96.313 67.511Q96.235 67.160 96.008 66.959Q95.780 66.757 95.299 66.757Q94.844 66.757 94.610 66.959Q94.376 67.160 94.298 67.511Q94.220 67.862 94.220 68.304L94.220 73.153Q94.220 73.582 94.291 73.946Q94.363 74.310 94.597 74.518Q94.831 74.726 95.299 74.726 M105.517 76L103.593 76L103.593 66.887L101.916 66.887L101.916 65.470L107.168 65.470L107.168 66.887L105.517 66.887 M114.019 76L110.990 76L110.990 65.470L113.577 65.470Q114.279 65.470 114.844 65.600Q115.410 65.730 115.820 66.035Q116.229 66.341 116.450 66.861Q116.671 67.381 116.671 68.174Q116.671 68.811 116.496 69.266Q116.320 69.721 115.982 69.987Q115.644 70.254 115.137 70.345Q115.761 70.449 116.171 70.781Q116.580 71.112 116.782 71.645Q116.983 72.178 116.983 72.932Q116.983 73.686 116.794 74.264Q116.606 74.843 116.236 75.227Q115.865 75.610 115.313 75.805Q114.760 76 114.019 76M112.914 71.099L112.914 74.648L113.642 74.648Q114.513 74.648 114.825 74.225Q115.137 73.803 115.137 72.919Q115.137 72.282 114.987 71.885Q114.838 71.489 114.493 71.294Q114.149 71.099 113.577 71.099L112.914 71.099M112.914 66.809L112.914 69.773L113.564 69.773Q114.136 69.773 114.448 69.604Q114.760 69.435 114.883 69.084Q115.007 68.733 115.007 68.200Q115.007 67.641 114.819 67.335Q114.630 67.030 114.253 66.919Q113.876 66.809 113.291 66.809 M122.339 76L120.532 76L122.638 65.470L124.692 65.470L126.798 76L125.017 76L124.601 73.569L122.768 73.569L122.339 76M123.678 67.927L122.963 72.347L124.393 72.347 M135.183 76L130.711 76L130.711 65.470L132.635 65.470L132.635 74.674L135.183 74.674 M143.516 76L139.044 76L139.044 65.470L140.968 65.470L140.968 74.674L143.516 74.674 M157.868 76L153.396 76L153.396 65.470L155.320 65.470L155.320 74.674L157.868 74.674 M166.175 76L161.729 76L161.729 65.470L166.149 65.470L166.149 66.822L163.653 66.822L163.653 69.851L165.616 69.851L165.616 71.190L163.653 71.190L163.653 74.674L166.175 74.674 M171.427 76L169.620 76L171.726 65.470L173.780 65.470L175.886 76L174.105 76L173.689 73.569L171.856 73.569L171.427 76M172.766 67.927L172.051 72.347L173.481 72.347 M182.321 76.143Q181.281 76.143 180.670 75.701Q180.059 75.259 179.793 74.447Q179.526 73.634 179.526 72.529L179.526 68.993Q179.526 67.862 179.786 67.043Q180.046 66.224 180.703 65.788Q181.359 65.353 182.516 65.353Q183.595 65.353 184.232 65.717Q184.869 66.081 185.149 66.763Q185.428 67.446 185.428 68.421L185.428 68.967L183.595 68.967L183.595 68.369Q183.595 67.862 183.524 67.498Q183.452 67.134 183.238 66.945Q183.023 66.757 182.542 66.757Q182.035 66.757 181.808 67.004Q181.580 67.251 181.522 67.654Q181.463 68.057 181.463 68.538L181.463 72.945Q181.463 73.491 181.554 73.894Q181.645 74.297 181.892 74.511Q182.139 74.726 182.594 74.726Q183.062 74.726 183.309 74.492Q183.556 74.258 183.654 73.842Q183.751 73.426 183.751 72.854L183.751 71.866L182.620 71.866L182.620 70.657L185.480 70.657L185.480 76L184.245 76L184.102 74.960Q183.894 75.480 183.472 75.811Q183.049 76.143 182.321 76.143 M192.695 76.143Q191.525 76.143 190.875 75.714Q190.225 75.285 189.978 74.492Q189.731 73.699 189.731 72.594L189.731 65.470L191.603 65.470L191.603 72.815Q191.603 73.309 191.668 73.745Q191.733 74.180 191.974 74.447Q192.214 74.713 192.695 74.713Q193.202 74.713 193.430 74.447Q193.657 74.180 193.729 73.745Q193.800 73.309 193.800 72.815L193.800 65.470L195.659 65.470L195.659 72.594Q195.659 73.699 195.412 74.492Q195.165 75.285 194.522 75.714Q193.878 76.143 192.695 76.143 M204.473 76L200.027 76L200.027 65.470L204.447 65.470L204.447 66.822L201.951 66.822L201.951 69.851L203.914 69.851L203.914 71.190L201.951 71.190L201.951 74.674L204.473 74.674" fill="#9aa0ab"/>
</svg>
